<svg width="1100" height="87" viewBox="0 0 1100 87" fill="none" xmlns="http://www.w3.org/2000/svg">
<g clip-path="url(#clip0_2_1201)">
<rect width="1100" height="87" fill="white"/>
<path fill-rule="evenodd" clip-rule="evenodd" d="M0 -7H1100V86H0V-7Z" fill="white"/>
<path d="M95.603 35H94.091L93.776 30.905L93.062 24.206H92.915L89.177 33.446H87.791L84.242 24.206H84.074L83.36 30.779L83.003 35H81.575L82.982 21.539H84.893L85.586 23.597L88.505 31.262H88.631L91.697 23.471L92.39 21.539H94.28L95.603 35ZM102.024 25.214C103.326 25.214 104.334 25.641 105.048 26.495C105.776 27.335 106.14 28.525 106.14 30.065C106.14 31.689 105.762 32.949 105.006 33.845C104.25 34.727 103.172 35.168 101.772 35.168C100.456 35.168 99.4344 34.748 98.7064 33.908C97.9924 33.054 97.6354 31.857 97.6354 30.317C97.6354 28.693 98.0134 27.44 98.7694 26.558C99.5394 25.662 100.624 25.214 102.024 25.214ZM101.919 26.39C101.037 26.39 100.365 26.691 99.9034 27.293C99.4414 27.895 99.2104 28.777 99.2104 29.939C99.2104 31.283 99.4344 32.291 99.8824 32.963C100.344 33.635 101.009 33.971 101.877 33.971C102.759 33.971 103.431 33.677 103.893 33.089C104.355 32.501 104.586 31.619 104.586 30.443C104.586 29.113 104.355 28.105 103.893 27.419C103.445 26.733 102.787 26.39 101.919 26.39ZM112.049 25.214C112.483 25.214 112.931 25.27 113.393 25.382C113.869 25.48 114.282 25.613 114.632 25.781L114.338 27.23L114.149 27.293C113.421 26.817 112.7 26.579 111.986 26.579C111.16 26.579 110.516 26.894 110.054 27.524C109.592 28.154 109.361 29.036 109.361 30.17C109.361 31.304 109.599 32.2 110.075 32.858C110.565 33.502 111.237 33.824 112.091 33.824C112.469 33.824 112.861 33.761 113.267 33.635C113.687 33.509 114.079 33.334 114.443 33.11L114.632 33.215L114.443 34.622C113.589 34.986 112.735 35.168 111.881 35.168C110.607 35.168 109.606 34.734 108.878 33.866C108.15 32.984 107.786 31.78 107.786 30.254C107.786 28.7 108.164 27.475 108.92 26.579C109.69 25.669 110.733 25.214 112.049 25.214ZM117.079 30.926L117.037 25.487L118.654 25.34L118.612 30.779L118.633 35H117.016L117.079 30.926ZM120.607 29.792C121.839 31.402 123.197 33.04 124.681 34.706V34.895C124.415 34.979 124.121 35.042 123.799 35.084C123.491 35.14 123.288 35.175 123.19 35.189L123.022 35.105C121.328 33.103 119.977 31.381 118.969 29.939V29.792L122.056 26.243L122.602 25.382H124.408L120.607 29.792ZM131.653 29.981C133.081 30.289 133.795 31.052 133.795 32.27C133.795 34.132 132.339 35.063 129.427 35.063C128.587 35.063 127.663 35.042 126.655 35L126.739 30.926L126.676 25.382L130.015 25.361C131.079 25.361 131.898 25.564 132.472 25.97C133.046 26.362 133.333 26.936 133.333 27.692C133.333 28.21 133.186 28.665 132.892 29.057C132.612 29.449 132.199 29.757 131.653 29.981ZM131.8 27.881C131.8 26.901 131.044 26.411 129.532 26.411C128.972 26.411 128.531 26.418 128.209 26.432L128.188 29.561L130.12 29.624C130.68 29.526 131.1 29.33 131.38 29.036C131.66 28.728 131.8 28.343 131.8 27.881ZM129.574 34.034C130.442 34.034 131.107 33.88 131.569 33.572C132.031 33.264 132.262 32.816 132.262 32.228C132.262 31.29 131.625 30.751 130.351 30.611L128.167 30.632V30.779L128.209 33.971C128.657 34.013 129.112 34.034 129.574 34.034ZM139.483 25.214C140.393 25.214 141.107 25.438 141.625 25.886C142.157 26.334 142.423 26.95 142.423 27.734C142.423 27.972 142.381 28.833 142.297 30.317C142.213 31.801 142.171 32.669 142.171 32.921C142.171 33.229 142.22 33.446 142.318 33.572C142.416 33.684 142.584 33.74 142.822 33.74C143.032 33.74 143.27 33.698 143.536 33.614L143.704 33.761L143.536 34.706C143.13 34.944 142.731 35.084 142.339 35.126C141.905 35.084 141.555 34.93 141.289 34.664C141.037 34.398 140.904 34.034 140.89 33.572H140.743C139.987 34.342 139.238 34.867 138.496 35.147C137.558 35.147 136.823 34.916 136.291 34.454C135.773 33.978 135.514 33.334 135.514 32.522C135.514 31.906 135.675 31.416 135.997 31.052C136.333 30.688 136.823 30.429 137.467 30.275L140.869 29.477L140.89 28.112C140.89 27.566 140.743 27.146 140.449 26.852C140.169 26.558 139.763 26.411 139.231 26.411C138.755 26.411 138.279 26.523 137.803 26.747C137.327 26.971 136.816 27.321 136.27 27.797L136.102 27.713L135.892 26.516C137.054 25.648 138.251 25.214 139.483 25.214ZM137.803 31.283C137.523 31.367 137.32 31.486 137.194 31.64C137.068 31.78 137.005 31.997 137.005 32.291C137.005 32.753 137.131 33.117 137.383 33.383C137.649 33.635 137.999 33.761 138.433 33.761C139.203 33.761 139.987 33.264 140.785 32.27L140.848 30.548L137.803 31.283ZM146.938 33.173C147.526 33.537 147.82 34.006 147.82 34.58C147.82 35.49 147.162 36.428 145.846 37.394L145.279 36.869V36.722C146.049 36.12 146.434 35.504 146.434 34.874C146.434 34.496 146.217 34.167 145.783 33.887V33.719C146.175 33.453 146.56 33.271 146.938 33.173ZM154.636 26.558L156.946 33.194H157.093L159.487 26.705L159.802 25.382H161.293L157.849 34.664C157.499 35.616 157.121 36.365 156.715 36.911C156.323 37.457 155.84 37.884 155.266 38.192C154.706 38.514 153.964 38.787 153.04 39.011H152.893C152.599 38.717 152.368 38.388 152.2 38.024L152.242 37.835C153.306 37.625 154.118 37.324 154.678 36.932C155.252 36.554 155.784 35.91 156.274 35L152.746 25.424L154.321 25.319L154.636 26.558ZM169.069 30.779L169.132 35H167.494L167.557 30.926L167.515 26.516H165.016L164.932 27.293C164.75 29.239 164.533 30.751 164.281 31.829C164.029 32.907 163.714 33.698 163.336 34.202C162.972 34.706 162.489 35.028 161.887 35.168L161.467 35.21L161.194 33.929C161.712 33.747 162.125 33.432 162.433 32.984C162.741 32.536 162.986 31.857 163.168 30.947C163.35 30.037 163.518 28.728 163.672 27.02L163.84 25.424L163.819 25.382H169.153L169.069 30.779ZM173.286 33.152C173.566 33.152 173.79 33.236 173.958 33.404C174.126 33.572 174.21 33.803 174.21 34.097C174.21 34.405 174.119 34.65 173.937 34.832C173.769 35.014 173.531 35.105 173.223 35.105C172.929 35.105 172.698 35.021 172.53 34.853C172.376 34.685 172.299 34.447 172.299 34.139C172.299 33.845 172.383 33.607 172.551 33.425C172.733 33.243 172.978 33.152 173.286 33.152ZM188.248 30.8L188.29 35H186.631L186.715 30.947L186.694 28.931L182.956 28.91L179.533 28.931L179.512 30.8L179.575 35H177.916L177.979 30.947L177.916 21.539H179.596L179.533 27.503L183.103 27.524L186.694 27.503L186.631 21.539H188.332L188.248 30.8ZM195.355 25.214C196.657 25.214 197.665 25.641 198.379 26.495C199.107 27.335 199.471 28.525 199.471 30.065C199.471 31.689 199.093 32.949 198.337 33.845C197.581 34.727 196.503 35.168 195.103 35.168C193.787 35.168 192.765 34.748 192.037 33.908C191.323 33.054 190.966 31.857 190.966 30.317C190.966 28.693 191.344 27.44 192.1 26.558C192.87 25.662 193.955 25.214 195.355 25.214ZM195.25 26.39C194.368 26.39 193.696 26.691 193.234 27.293C192.772 27.895 192.541 28.777 192.541 29.939C192.541 31.283 192.765 32.291 193.213 32.963C193.675 33.635 194.34 33.971 195.208 33.971C196.09 33.971 196.762 33.677 197.224 33.089C197.686 32.501 197.917 31.619 197.917 30.443C197.917 29.113 197.686 28.105 197.224 27.419C196.776 26.733 196.118 26.39 195.25 26.39ZM206.834 29.981C208.262 30.289 208.976 31.052 208.976 32.27C208.976 34.132 207.52 35.063 204.608 35.063C203.768 35.063 202.844 35.042 201.836 35L201.92 30.926L201.857 25.382L205.196 25.361C206.26 25.361 207.079 25.564 207.653 25.97C208.227 26.362 208.514 26.936 208.514 27.692C208.514 28.21 208.367 28.665 208.073 29.057C207.793 29.449 207.38 29.757 206.834 29.981ZM206.981 27.881C206.981 26.901 206.225 26.411 204.713 26.411C204.153 26.411 203.712 26.418 203.39 26.432L203.369 29.561L205.301 29.624C205.861 29.526 206.281 29.33 206.561 29.036C206.841 28.728 206.981 28.343 206.981 27.881ZM204.755 34.034C205.623 34.034 206.288 33.88 206.75 33.572C207.212 33.264 207.443 32.816 207.443 32.228C207.443 31.29 206.806 30.751 205.532 30.611L203.348 30.632V30.779L203.39 33.971C203.838 34.013 204.293 34.034 204.755 34.034ZM220.822 30.779L220.864 35H219.226L219.31 30.926L219.247 25.487L220.864 25.34L220.822 30.779ZM215.005 29.246C215.957 29.246 216.678 29.47 217.168 29.918C217.672 30.352 217.924 30.989 217.924 31.829C217.924 32.837 217.581 33.621 216.895 34.181C216.209 34.727 215.25 35 214.018 35H211.372L211.456 30.926L211.393 25.382H213.01L212.968 29.246H215.005ZM214.522 33.929C215.124 33.859 215.572 33.663 215.866 33.341C216.174 33.005 216.328 32.557 216.328 31.997C216.328 31.437 216.174 31.01 215.866 30.716C215.572 30.408 215.138 30.261 214.564 30.275L212.947 30.296V30.779L212.989 33.887L214.522 33.929ZM224.212 30.926L224.128 25.424L225.745 25.34L225.703 32.627H225.829L230.176 25.382H231.814L231.751 30.758L231.814 35H230.197L230.26 31.031V27.65H230.134L225.724 35H224.128L224.212 30.926ZM230.953 22.022C230.729 22.61 230.351 23.065 229.819 23.387C229.287 23.695 228.664 23.849 227.95 23.849C227.236 23.849 226.627 23.695 226.123 23.387C225.619 23.079 225.248 22.624 225.01 22.022L225.85 21.434H226.081C226.221 21.91 226.445 22.26 226.753 22.484C227.061 22.694 227.474 22.799 227.992 22.799C228.51 22.799 228.916 22.694 229.21 22.484C229.518 22.26 229.749 21.91 229.903 21.434H230.113L230.953 22.022ZM248.852 35H247.13L246.815 33.656L246.059 31.346L243.035 31.283L240.305 31.346L239.486 33.572L239.15 35H237.47L242.405 21.539H244.358L248.852 35ZM245.597 29.918L243.413 23.282H243.266L240.83 29.918L243.182 29.96L245.597 29.918ZM255.033 25.277C256.237 25.277 257.161 25.676 257.805 26.474C258.449 27.272 258.771 28.413 258.771 29.897C258.771 31.577 258.365 32.879 257.553 33.803C256.741 34.713 255.586 35.168 254.088 35.168C253.5 35.168 252.891 35.105 252.261 34.979L252.303 38.885H250.665L250.77 30.926L250.665 25.487L252.261 25.34L252.24 26.705H252.387C252.877 26.299 253.318 25.991 253.71 25.781C254.102 25.571 254.543 25.403 255.033 25.277ZM254.298 33.95C255.222 33.95 255.936 33.628 256.44 32.984C256.944 32.34 257.196 31.423 257.196 30.233C257.196 29.071 256.993 28.182 256.587 27.566C256.195 26.95 255.628 26.642 254.886 26.642C254.452 26.642 254.018 26.761 253.584 26.999C253.164 27.237 252.716 27.608 252.24 28.112L252.219 30.779L252.24 33.404C252.926 33.768 253.612 33.95 254.298 33.95ZM265.466 25.613C266.712 25.613 267.657 25.998 268.301 26.768C268.945 27.538 269.267 28.672 269.267 30.17C269.267 31.794 268.896 33.033 268.154 33.887C267.426 34.741 266.362 35.168 264.962 35.168C263.52 35.168 262.477 34.657 261.833 33.635C261.189 32.599 260.867 30.933 260.867 28.637C260.867 27.293 260.972 26.194 261.182 25.34C261.406 24.486 261.763 23.8 262.253 23.282C262.743 22.75 263.415 22.33 264.269 22.022L266.243 21.308C266.705 21.14 267.104 20.965 267.44 20.783C267.776 20.601 268.133 20.363 268.511 20.069L268.7 20.153L268.826 21.497C268.224 21.917 267.461 22.288 266.537 22.61L264.584 23.24C263.842 23.478 263.296 23.919 262.946 24.563C262.596 25.207 262.421 26.096 262.421 27.23V27.461L262.526 27.482C263.352 26.516 264.332 25.893 265.466 25.613ZM265.088 33.992C265.956 33.992 266.614 33.698 267.062 33.11C267.51 32.508 267.734 31.626 267.734 30.464C267.734 29.344 267.531 28.497 267.125 27.923C266.733 27.335 266.145 27.041 265.361 27.041C264.339 27.041 263.359 27.657 262.421 28.889C262.435 30.723 262.645 32.032 263.051 32.816C263.457 33.6 264.136 33.992 265.088 33.992ZM274.916 25.214C275.826 25.214 276.54 25.438 277.058 25.886C277.59 26.334 277.856 26.95 277.856 27.734C277.856 27.972 277.814 28.833 277.73 30.317C277.646 31.801 277.604 32.669 277.604 32.921C277.604 33.229 277.653 33.446 277.751 33.572C277.849 33.684 278.017 33.74 278.255 33.74C278.465 33.74 278.703 33.698 278.969 33.614L279.137 33.761L278.969 34.706C278.563 34.944 278.164 35.084 277.772 35.126C277.338 35.084 276.988 34.93 276.722 34.664C276.47 34.398 276.337 34.034 276.323 33.572H276.176C275.42 34.342 274.671 34.867 273.929 35.147C272.991 35.147 272.256 34.916 271.724 34.454C271.206 33.978 270.947 33.334 270.947 32.522C270.947 31.906 271.108 31.416 271.43 31.052C271.766 30.688 272.256 30.429 272.9 30.275L276.302 29.477L276.323 28.112C276.323 27.566 276.176 27.146 275.882 26.852C275.602 26.558 275.196 26.411 274.664 26.411C274.188 26.411 273.712 26.523 273.236 26.747C272.76 26.971 272.249 27.321 271.703 27.797L271.535 27.713L271.325 26.516C272.487 25.648 273.684 25.214 274.916 25.214ZM273.236 31.283C272.956 31.367 272.753 31.486 272.627 31.64C272.501 31.78 272.438 31.997 272.438 32.291C272.438 32.753 272.564 33.117 272.816 33.383C273.082 33.635 273.432 33.761 273.866 33.761C274.636 33.761 275.42 33.264 276.218 32.27L276.281 30.548L273.236 31.283ZM287.082 25.487L286.956 26.6L285.192 26.558H284.016L283.974 30.779L284.037 35H282.399L282.462 30.926L282.42 26.558H281.244L279.459 26.6L279.354 26.453L279.459 25.382H286.956L287.082 25.487ZM289.673 33.173C290.261 33.537 290.555 34.006 290.555 34.58C290.555 35.49 289.897 36.428 288.581 37.394L288.014 36.869V36.722C288.784 36.12 289.169 35.504 289.169 34.874C289.169 34.496 288.952 34.167 288.518 33.887V33.719C288.91 33.453 289.295 33.271 289.673 33.173ZM305.078 33.782V37.226L303.965 37.352L303.776 35H296.804L296.615 37.226L295.481 37.352V33.782H296.258C296.678 33.516 297.007 33.145 297.245 32.669C297.497 32.193 297.7 31.521 297.854 30.653C298.022 29.785 298.176 28.574 298.316 27.02L298.463 25.382H303.713L303.671 30.779L303.692 33.782H305.078ZM302.18 30.926L302.138 26.495H299.681L299.597 27.272C299.415 29.218 299.184 30.681 298.904 31.661C298.638 32.627 298.253 33.334 297.749 33.782H302.138L302.18 30.926ZM308.309 33.152C308.589 33.152 308.813 33.236 308.981 33.404C309.149 33.572 309.233 33.803 309.233 34.097C309.233 34.405 309.142 34.65 308.96 34.832C308.792 35.014 308.554 35.105 308.246 35.105C307.952 35.105 307.721 35.021 307.553 34.853C307.399 34.685 307.322 34.447 307.322 34.139C307.322 33.845 307.406 33.607 307.574 33.425C307.756 33.243 308.001 33.152 308.309 33.152ZM314.683 24.437C315.635 24.437 316.405 24.689 316.993 25.193C317.581 25.683 317.875 26.32 317.875 27.104C317.875 27.706 317.693 28.287 317.329 28.847C316.979 29.407 316.461 29.862 315.775 30.212V30.296C316.615 30.492 317.252 30.828 317.686 31.304C318.12 31.78 318.337 32.375 318.337 33.089C318.337 33.859 318.134 34.545 317.728 35.147C317.336 35.749 316.776 36.211 316.048 36.533C315.32 36.869 314.487 37.037 313.549 37.037C312.905 37.037 312.219 36.974 311.491 36.848L311.386 35.42L311.512 35.315C312.17 35.595 312.884 35.735 313.654 35.735C314.578 35.735 315.327 35.511 315.901 35.063C316.475 34.629 316.762 34.041 316.762 33.299C316.762 32.641 316.524 32.123 316.048 31.745C315.586 31.367 314.921 31.164 314.053 31.136H312.814L312.709 31.01L312.751 29.855L313.675 29.834C314.053 29.834 314.438 29.729 314.83 29.519C315.222 29.309 315.544 29.022 315.796 28.658C316.062 28.294 316.195 27.895 316.195 27.461C316.195 26.957 316.027 26.558 315.691 26.264C315.355 25.97 314.914 25.823 314.368 25.823C313.934 25.823 313.507 25.928 313.087 26.138C312.681 26.334 312.24 26.642 311.764 27.062H311.575L311.323 25.739C312.373 24.871 313.493 24.437 314.683 24.437ZM324.051 24.626L323.946 30.653L324.03 35H322.35L322.455 30.863L322.434 26.369L319.725 27.125L319.557 27.041V25.718L323.799 24.458L324.051 24.626ZM332.593 20.951L328.288 37.373H327.133L327.007 37.205L331.312 20.762H332.467L332.593 20.951ZM337.299 24.626L337.194 30.653L337.278 35H335.598L335.703 30.863L335.682 26.369L332.973 27.125L332.805 27.041V25.718L337.047 24.458L337.299 24.626ZM344.623 24.458C345.463 24.458 346.149 24.675 346.681 25.109C347.227 25.529 347.5 26.089 347.5 26.789C347.5 27.349 347.304 27.979 346.912 28.679C346.52 29.365 345.897 30.205 345.043 31.199L342.922 33.614L342.964 33.698H346.849L348.613 33.572L348.739 33.677L348.508 35.084L346.366 35H341.662L340.885 35.042L340.78 34.958V33.908L343.699 30.737C344.455 29.897 345.008 29.204 345.358 28.658C345.708 28.098 345.883 27.608 345.883 27.188C345.883 26.81 345.743 26.502 345.463 26.264C345.183 26.012 344.791 25.886 344.287 25.886C343.783 25.886 343.279 26.012 342.775 26.264C342.285 26.516 341.837 26.866 341.431 27.314H341.221L340.948 26.033C341.494 25.529 342.082 25.144 342.712 24.878C343.342 24.598 343.979 24.458 344.623 24.458Z" fill="#292929"/>
<path d="M104.145 51.568C105.167 51.568 105.965 51.834 106.539 52.366C107.127 52.884 107.421 53.598 107.421 54.508C107.421 55.222 107.239 55.81 106.875 56.272C106.511 56.734 106.014 57.147 105.384 57.511V57.616C106.14 57.98 106.728 58.386 107.148 58.834C107.582 59.268 107.799 59.884 107.799 60.682C107.799 61.732 107.428 62.572 106.686 63.202C105.944 63.832 104.957 64.147 103.725 64.147C102.577 64.147 101.667 63.86 100.995 63.286C100.337 62.698 100.008 61.935 100.008 60.997C100.008 60.213 100.232 59.576 100.68 59.086C101.128 58.582 101.723 58.148 102.465 57.784V57.679C101.877 57.371 101.401 56.993 101.037 56.545C100.673 56.097 100.491 55.509 100.491 54.781C100.491 53.787 100.827 53.003 101.499 52.429C102.171 51.855 103.053 51.568 104.145 51.568ZM104.061 52.786C103.403 52.786 102.878 52.961 102.486 53.311C102.094 53.661 101.898 54.137 101.898 54.739C101.898 55.341 102.08 55.81 102.444 56.146C102.822 56.468 103.361 56.769 104.061 57.049C104.691 56.783 105.181 56.475 105.531 56.125C105.895 55.761 106.077 55.271 106.077 54.655C106.077 54.067 105.895 53.612 105.531 53.29C105.181 52.954 104.691 52.786 104.061 52.786ZM103.767 58.309C103.053 58.561 102.486 58.876 102.066 59.254C101.646 59.632 101.436 60.157 101.436 60.829C101.436 61.459 101.653 61.97 102.087 62.362C102.535 62.754 103.13 62.95 103.872 62.95C104.642 62.95 105.251 62.754 105.699 62.362C106.161 61.956 106.392 61.431 106.392 60.787C106.392 60.339 106.273 59.968 106.035 59.674C105.797 59.366 105.51 59.128 105.174 58.96C104.852 58.778 104.383 58.561 103.767 58.309ZM117.557 51.568C118.579 51.568 119.377 51.834 119.951 52.366C120.539 52.884 120.833 53.598 120.833 54.508C120.833 55.222 120.651 55.81 120.287 56.272C119.923 56.734 119.426 57.147 118.796 57.511V57.616C119.552 57.98 120.14 58.386 120.56 58.834C120.994 59.268 121.211 59.884 121.211 60.682C121.211 61.732 120.84 62.572 120.098 63.202C119.356 63.832 118.369 64.147 117.137 64.147C115.989 64.147 115.079 63.86 114.407 63.286C113.749 62.698 113.42 61.935 113.42 60.997C113.42 60.213 113.644 59.576 114.092 59.086C114.54 58.582 115.135 58.148 115.877 57.784V57.679C115.289 57.371 114.813 56.993 114.449 56.545C114.085 56.097 113.903 55.509 113.903 54.781C113.903 53.787 114.239 53.003 114.911 52.429C115.583 51.855 116.465 51.568 117.557 51.568ZM117.473 52.786C116.815 52.786 116.29 52.961 115.898 53.311C115.506 53.661 115.31 54.137 115.31 54.739C115.31 55.341 115.492 55.81 115.856 56.146C116.234 56.468 116.773 56.769 117.473 57.049C118.103 56.783 118.593 56.475 118.943 56.125C119.307 55.761 119.489 55.271 119.489 54.655C119.489 54.067 119.307 53.612 118.943 53.29C118.593 52.954 118.103 52.786 117.473 52.786ZM117.179 58.309C116.465 58.561 115.898 58.876 115.478 59.254C115.058 59.632 114.848 60.157 114.848 60.829C114.848 61.459 115.065 61.97 115.499 62.362C115.947 62.754 116.542 62.95 117.284 62.95C118.054 62.95 118.663 62.754 119.111 62.362C119.573 61.956 119.804 61.431 119.804 60.787C119.804 60.339 119.685 59.968 119.447 59.674C119.209 59.366 118.922 59.128 118.586 58.96C118.264 58.778 117.795 58.561 117.179 58.309ZM128.028 53.416C129.442 53.416 130.534 53.878 131.304 54.802C132.088 55.712 132.48 57.014 132.48 58.708C132.48 60.444 132.074 61.788 131.262 62.74C130.45 63.678 129.302 64.147 127.818 64.147C126.39 64.147 125.284 63.692 124.5 62.782C123.73 61.872 123.345 60.584 123.345 58.918C123.345 57.154 123.751 55.796 124.563 54.844C125.375 53.892 126.53 53.416 128.028 53.416ZM127.881 54.949C126.817 54.949 126.012 55.271 125.466 55.915C124.934 56.559 124.668 57.518 124.668 58.792C124.668 60.08 124.941 61.053 125.487 61.711C126.033 62.355 126.838 62.677 127.902 62.677C128.966 62.677 129.771 62.362 130.317 61.732C130.877 61.088 131.157 60.143 131.157 58.897C131.157 57.595 130.877 56.615 130.317 55.957C129.771 55.285 128.959 54.949 127.881 54.949ZM139.123 53.416C140.537 53.416 141.629 53.878 142.399 54.802C143.183 55.712 143.575 57.014 143.575 58.708C143.575 60.444 143.169 61.788 142.357 62.74C141.545 63.678 140.397 64.147 138.913 64.147C137.485 64.147 136.379 63.692 135.595 62.782C134.825 61.872 134.44 60.584 134.44 58.918C134.44 57.154 134.846 55.796 135.658 54.844C136.47 53.892 137.625 53.416 139.123 53.416ZM138.976 54.949C137.912 54.949 137.107 55.271 136.561 55.915C136.029 56.559 135.763 57.518 135.763 58.792C135.763 60.08 136.036 61.053 136.582 61.711C137.128 62.355 137.933 62.677 138.997 62.677C140.061 62.677 140.866 62.362 141.412 61.732C141.972 61.088 142.252 60.143 142.252 58.897C142.252 57.595 141.972 56.615 141.412 55.957C140.866 55.285 140.054 54.949 138.976 54.949ZM152.277 60.85C151.227 60.85 150.401 60.528 149.799 59.884C149.211 59.24 148.917 58.379 148.917 57.301C148.917 56.139 149.281 55.194 150.009 54.466C150.737 53.724 151.738 53.353 153.012 53.353C154.3 53.353 155.273 53.752 155.931 54.55C156.589 55.348 156.918 56.482 156.918 57.952C156.918 59.73 156.372 61.319 155.28 62.719C154.202 64.119 152.676 65.211 150.702 65.995H150.597L149.295 65.239V65.071C150.975 64.483 152.284 63.783 153.222 62.971C154.174 62.159 154.811 61.193 155.133 60.073L155.007 59.926C154.167 60.542 153.257 60.85 152.277 60.85ZM152.886 54.508C152.102 54.508 151.493 54.732 151.059 55.18C150.625 55.614 150.408 56.244 150.408 57.07C150.408 57.882 150.611 58.512 151.017 58.96C151.423 59.394 151.997 59.611 152.739 59.611C153.663 59.611 154.545 59.247 155.385 58.519C155.399 58.393 155.406 58.204 155.406 57.952C155.406 56.804 155.203 55.943 154.797 55.369C154.391 54.795 153.754 54.508 152.886 54.508ZM163.548 53.416C164.962 53.416 166.054 53.878 166.824 54.802C167.608 55.712 168 57.014 168 58.708C168 60.444 167.594 61.788 166.782 62.74C165.97 63.678 164.822 64.147 163.338 64.147C161.91 64.147 160.804 63.692 160.02 62.782C159.25 61.872 158.865 60.584 158.865 58.918C158.865 57.154 159.271 55.796 160.083 54.844C160.895 53.892 162.05 53.416 163.548 53.416ZM163.401 54.949C162.337 54.949 161.532 55.271 160.986 55.915C160.454 56.559 160.188 57.518 160.188 58.792C160.188 60.08 160.461 61.053 161.007 61.711C161.553 62.355 162.358 62.677 163.422 62.677C164.486 62.677 165.291 62.362 165.837 61.732C166.397 61.088 166.677 60.143 166.677 58.897C166.677 57.595 166.397 56.615 165.837 55.957C165.291 55.285 164.479 54.949 163.401 54.949ZM172.984 53.437C173.936 53.437 174.706 53.689 175.294 54.193C175.882 54.683 176.176 55.32 176.176 56.104C176.176 56.706 175.994 57.287 175.63 57.847C175.28 58.407 174.762 58.862 174.076 59.212V59.296C174.916 59.492 175.553 59.828 175.987 60.304C176.421 60.78 176.638 61.375 176.638 62.089C176.638 62.859 176.435 63.545 176.029 64.147C175.637 64.749 175.077 65.211 174.349 65.533C173.621 65.869 172.788 66.037 171.85 66.037C171.206 66.037 170.52 65.974 169.792 65.848L169.687 64.42L169.813 64.315C170.471 64.595 171.185 64.735 171.955 64.735C172.879 64.735 173.628 64.511 174.202 64.063C174.776 63.629 175.063 63.041 175.063 62.299C175.063 61.641 174.825 61.123 174.349 60.745C173.887 60.367 173.222 60.164 172.354 60.136H171.115L171.01 60.01L171.052 58.855L171.976 58.834C172.354 58.834 172.739 58.729 173.131 58.519C173.523 58.309 173.845 58.022 174.097 57.658C174.363 57.294 174.496 56.895 174.496 56.461C174.496 55.957 174.328 55.558 173.992 55.264C173.656 54.97 173.215 54.823 172.669 54.823C172.235 54.823 171.808 54.928 171.388 55.138C170.982 55.334 170.541 55.642 170.065 56.062H169.876L169.624 54.739C170.674 53.871 171.794 53.437 172.984 53.437ZM185.356 60.85C184.306 60.85 183.48 60.528 182.878 59.884C182.29 59.24 181.996 58.379 181.996 57.301C181.996 56.139 182.36 55.194 183.088 54.466C183.816 53.724 184.817 53.353 186.091 53.353C187.379 53.353 188.352 53.752 189.01 54.55C189.668 55.348 189.997 56.482 189.997 57.952C189.997 59.73 189.451 61.319 188.359 62.719C187.281 64.119 185.755 65.211 183.781 65.995H183.676L182.374 65.239V65.071C184.054 64.483 185.363 63.783 186.301 62.971C187.253 62.159 187.89 61.193 188.212 60.073L188.086 59.926C187.246 60.542 186.336 60.85 185.356 60.85ZM185.965 54.508C185.181 54.508 184.572 54.732 184.138 55.18C183.704 55.614 183.487 56.244 183.487 57.07C183.487 57.882 183.69 58.512 184.096 58.96C184.502 59.394 185.076 59.611 185.818 59.611C186.742 59.611 187.624 59.247 188.464 58.519C188.478 58.393 188.485 58.204 188.485 57.952C188.485 56.804 188.282 55.943 187.876 55.369C187.47 54.795 186.833 54.508 185.965 54.508ZM196.627 53.416C198.041 53.416 199.133 53.878 199.903 54.802C200.687 55.712 201.079 57.014 201.079 58.708C201.079 60.444 200.673 61.788 199.861 62.74C199.049 63.678 197.901 64.147 196.417 64.147C194.989 64.147 193.883 63.692 193.099 62.782C192.329 61.872 191.944 60.584 191.944 58.918C191.944 57.154 192.35 55.796 193.162 54.844C193.974 53.892 195.129 53.416 196.627 53.416ZM196.48 54.949C195.416 54.949 194.611 55.271 194.065 55.915C193.533 56.559 193.267 57.518 193.267 58.792C193.267 60.08 193.54 61.053 194.086 61.711C194.632 62.355 195.437 62.677 196.501 62.677C197.565 62.677 198.37 62.362 198.916 61.732C199.476 61.088 199.756 60.143 199.756 58.897C199.756 57.595 199.476 56.615 198.916 55.957C198.37 55.285 197.558 54.949 196.48 54.949ZM209.781 60.85C208.731 60.85 207.905 60.528 207.303 59.884C206.715 59.24 206.421 58.379 206.421 57.301C206.421 56.139 206.785 55.194 207.513 54.466C208.241 53.724 209.242 53.353 210.516 53.353C211.804 53.353 212.777 53.752 213.435 54.55C214.093 55.348 214.422 56.482 214.422 57.952C214.422 59.73 213.876 61.319 212.784 62.719C211.706 64.119 210.18 65.211 208.206 65.995H208.101L206.799 65.239V65.071C208.479 64.483 209.788 63.783 210.726 62.971C211.678 62.159 212.315 61.193 212.637 60.073L212.511 59.926C211.671 60.542 210.761 60.85 209.781 60.85ZM210.39 54.508C209.606 54.508 208.997 54.732 208.563 55.18C208.129 55.614 207.912 56.244 207.912 57.07C207.912 57.882 208.115 58.512 208.521 58.96C208.927 59.394 209.501 59.611 210.243 59.611C211.167 59.611 212.049 59.247 212.889 58.519C212.903 58.393 212.91 58.204 212.91 57.952C212.91 56.804 212.707 55.943 212.301 55.369C211.895 54.795 211.258 54.508 210.39 54.508ZM221.052 53.416C222.466 53.416 223.558 53.878 224.328 54.802C225.112 55.712 225.504 57.014 225.504 58.708C225.504 60.444 225.098 61.788 224.286 62.74C223.474 63.678 222.326 64.147 220.842 64.147C219.414 64.147 218.308 63.692 217.524 62.782C216.754 61.872 216.369 60.584 216.369 58.918C216.369 57.154 216.775 55.796 217.587 54.844C218.399 53.892 219.554 53.416 221.052 53.416ZM220.905 54.949C219.841 54.949 219.036 55.271 218.49 55.915C217.958 56.559 217.692 57.518 217.692 58.792C217.692 60.08 217.965 61.053 218.511 61.711C219.057 62.355 219.862 62.677 220.926 62.677C221.99 62.677 222.795 62.362 223.341 61.732C223.901 61.088 224.181 60.143 224.181 58.897C224.181 57.595 223.901 56.615 223.341 55.957C222.795 55.285 221.983 54.949 220.905 54.949Z" fill="#292929"/>
<g clip-path="url(#clip1_2_1201)">
<path d="M91.9741 61.2978C91.9401 61.1955 91.7242 61.0449 91.3264 60.8462C91.2186 60.7836 91.0651 60.6985 90.8664 60.5905C90.6675 60.4825 90.487 60.383 90.3252 60.2921C90.163 60.2012 90.0111 60.1131 89.8692 60.028C89.8465 60.011 89.7755 59.9614 89.6562 59.8788C89.5367 59.7965 89.436 59.7354 89.3535 59.6955C89.2711 59.6559 89.1901 59.6359 89.1106 59.6359C88.9969 59.6359 88.855 59.717 88.6846 59.8788C88.5143 60.0408 88.358 60.2168 88.216 60.4073C88.074 60.5977 87.9234 60.7737 87.7645 60.9357C87.6053 61.0977 87.4745 61.1786 87.3724 61.1786C87.3211 61.1786 87.2571 61.1643 87.1805 61.1361C87.1039 61.1077 87.0457 61.0834 87.0057 61.0638C86.966 61.0437 86.898 61.0041 86.8013 60.9443C86.7045 60.8846 86.6506 60.8519 86.6393 60.8462C85.8609 60.4143 85.1934 59.92 84.6365 59.3633C84.0798 58.8064 83.5854 58.1389 83.1536 57.3604C83.148 57.349 83.1152 57.295 83.0556 57.1985C82.9959 57.1019 82.9561 57.0338 82.9362 56.9939C82.9163 56.9542 82.8922 56.8959 82.8638 56.8192C82.8355 56.7425 82.8212 56.6787 82.8212 56.6275C82.8212 56.5252 82.9022 56.3945 83.0642 56.2354C83.2261 56.0764 83.4023 55.9258 83.5925 55.7838C83.7829 55.6419 83.959 55.4856 84.1209 55.3152C84.2828 55.1447 84.3638 55.0027 84.3638 54.8891C84.3638 54.8096 84.3439 54.7286 84.3042 54.6462C84.2644 54.5637 84.2033 54.463 84.1209 54.3436C84.0385 54.2243 83.9888 54.1533 83.9717 54.1305C83.8866 53.9885 83.7986 53.8366 83.7076 53.6746C83.6166 53.5127 83.5172 53.3322 83.4092 53.1334C83.3013 52.9347 83.2161 52.7812 83.1536 52.6733C82.9548 52.2756 82.8043 52.0596 82.702 52.0256C82.6622 52.0086 82.6025 52 82.523 52C82.3695 52 82.1693 52.0284 81.9222 52.0853C81.6749 52.1421 81.4804 52.2016 81.3383 52.2642C81.0543 52.3835 80.7531 52.7301 80.4349 53.3038C80.1452 53.8378 80.0003 54.3663 80.0003 54.889C80.0003 55.0423 80.0102 55.1914 80.0301 55.3364C80.05 55.4813 80.0855 55.6446 80.1367 55.8265C80.1878 56.0083 80.2291 56.1433 80.2602 56.2313C80.2914 56.3193 80.3497 56.4769 80.4349 56.7043C80.52 56.9315 80.5712 57.0707 80.5883 57.1218C80.7871 57.6787 81.0229 58.1758 81.2956 58.6133C81.7443 59.3405 82.3565 60.0921 83.1321 60.8677C83.9076 61.6432 84.659 62.2554 85.3863 62.7043C85.8238 62.9769 86.3211 63.2127 86.8778 63.4117C86.929 63.4286 87.0681 63.4797 87.2953 63.5651C87.5226 63.6503 87.6803 63.7086 87.7683 63.7398C87.8563 63.7711 87.9914 63.8124 88.173 63.8636C88.3551 63.9147 88.5183 63.9503 88.6631 63.9703C88.8081 63.9899 88.9573 64 89.1106 64C89.6332 64 90.1618 63.8551 90.6958 63.5653C91.2695 63.2473 91.616 62.9461 91.7353 62.6618C91.7981 62.5199 91.8575 62.3253 91.9143 62.0781C91.9713 61.8309 91.9996 61.6307 91.9996 61.4773C91.9998 61.3975 91.9912 61.3379 91.9741 61.2978Z" fill="#292929"/>
</g>
<g clip-path="url(#clip2_2_1201)">
<path d="M1019.46 40.0161C1018.64 40.5066 1017.77 40.8336 1016.84 41.0516C1016.08 40.2341 1015.04 39.7437 1013.84 39.7437C1011.55 39.7437 1009.75 41.651 1009.75 43.9398C1009.75 44.2668 1009.81 44.5938 1009.86 44.9208C1006.43 44.7028 1003.43 43.0134 1001.42 40.4521C1001.09 41.0516 1000.87 41.8145 1000.87 42.5774C1000.87 44.0488 1001.58 45.3022 1002.72 46.0652C1002.07 46.0652 1001.42 45.8472 1000.87 45.5202V45.6292C1000.87 47.6456 1002.29 49.3894 1004.14 49.7709C1003.81 49.8799 1003.43 49.9344 1003.05 49.9344C1002.78 49.9344 1002.51 49.9344 1002.29 49.8799C1002.83 51.5693 1004.31 52.7682 1006.1 52.8227C1004.69 53.9671 1002.94 54.621 1000.98 54.621C1000.65 54.621 1000.33 54.621 1000 54.5665C1001.8 55.7654 1003.98 56.4739 1006.27 56.4739C1013.84 56.4739 1017.93 50.0434 1017.93 44.4848C1017.93 44.3213 1017.93 44.1033 1017.93 43.9398C1018.75 43.3404 1019.46 42.6319 1020 41.76C1019.29 42.087 1018.47 42.305 1017.66 42.414C1018.47 41.8145 1019.13 40.9971 1019.46 40.0161Z" fill="#B3B3B3"/>
</g>
<g clip-path="url(#clip3_2_1201)">
<path d="M983.602 38H968.398C967.09 38 966 39.0354 966 40.3433V55.6567C966 56.9646 967.09 58 968.398 58H983.602C984.91 58 986 56.9646 986 55.6567V40.3433C986 39.0354 984.91 38 983.602 38ZM980.387 41.1063C980.387 40.7793 980.659 40.5068 980.986 40.5068H982.894C983.221 40.5068 983.493 40.7793 983.493 41.1063V42.9591C983.493 43.2861 983.221 43.5586 982.894 43.5586H981.041C980.714 43.5586 980.441 43.2861 980.441 42.9591L980.387 41.1063ZM976.027 44.158C978.153 44.158 979.896 45.8474 979.896 47.9728C979.896 50.0981 978.153 51.7875 976.027 51.7875C973.902 51.7875 972.158 50.0981 972.158 47.9728C972.158 45.9019 973.902 44.158 976.027 44.158ZM984.093 55.4932C984.093 55.8202 983.82 56.0926 983.493 56.0926H968.507C968.18 56.0926 967.907 55.8202 967.907 55.4932V46.1199H970.36C970.033 46.6104 969.924 47.4823 969.924 48.0272C969.924 51.3515 972.649 54.0763 976.027 54.0763C979.406 54.0763 982.131 51.3515 982.131 48.0272C982.131 47.4823 982.076 46.6104 981.64 46.1199H984.147L984.093 55.4932Z" fill="#B3B3B3"/>
</g>
<g clip-path="url(#clip4_2_1201)">
<path d="M952 56.9101C952 57.5095 951.51 58 950.91 58H945.787V50.2616H948.403L948.785 47.2643H945.787V45.3569C945.787 44.485 946.005 43.8856 947.259 43.8856H948.839V41.1608C948.567 41.1063 947.64 41.0518 946.496 41.0518C944.207 41.0518 942.627 42.4687 942.627 45.03V47.2643H940.011V50.2616H942.627V58H933.09C932.49 58 932 57.5095 932 56.9101V39.0899C932 38.4905 932.49 38 933.09 38H950.91C951.51 38 952 38.4905 952 39.0899V56.9101Z" fill="#292929"/>
</g>
<g clip-path="url(#clip5_2_1201)">
<path d="M917.891 52.6049C917.891 52.5504 917.837 52.4959 917.837 52.4959C917.51 51.8965 916.801 51.079 915.82 50.2071C915.384 49.7711 915.112 49.4986 915.003 49.3351C914.785 49.0627 914.73 48.7902 914.839 48.5177C914.948 48.2997 915.221 47.8638 915.766 47.1553C916.038 46.7738 916.256 46.5014 916.42 46.2834C917.619 44.703 918.163 43.6676 918 43.2316L917.946 43.1226C917.891 42.9591 917.782 42.9046 917.619 42.8501C917.455 42.7956 917.237 42.7956 916.965 42.8501H913.967C913.913 42.8501 913.858 42.8501 913.749 42.8501C913.64 42.8501 913.64 42.9046 913.64 42.9046H913.586L913.531 42.9591C913.477 42.9591 913.477 43.0136 913.422 43.0681C913.368 43.1226 913.368 43.1771 913.313 43.2316C912.986 44.049 912.605 44.8665 912.223 45.5749C911.951 46.0109 911.733 46.3924 911.515 46.7193C911.297 47.0463 911.134 47.2643 910.97 47.4278C910.807 47.5913 910.698 47.7003 910.589 47.8093C910.48 47.9183 910.371 47.9183 910.316 47.9183C910.262 47.9183 910.207 47.8638 910.153 47.8638C910.044 47.8093 909.989 47.7003 909.935 47.5913C909.88 47.4823 909.826 47.3733 909.826 47.2098C909.826 47.0463 909.771 46.8828 909.771 46.7738C909.771 46.6648 909.771 46.5014 909.771 46.2834C909.771 46.0654 909.771 45.9019 909.771 45.8474C909.771 45.5749 909.771 45.3025 909.771 44.9755C909.771 44.6485 909.771 44.4305 909.771 44.267C909.771 44.1035 909.771 43.8856 909.771 43.6676C909.771 43.4496 909.771 43.2861 909.717 43.1771C909.717 43.0681 909.662 42.9591 909.608 42.8501C909.553 42.7411 909.499 42.6322 909.39 42.5777C909.281 42.5232 909.172 42.4687 909.063 42.4142C908.681 42.3052 908.245 42.3052 907.646 42.3052C906.338 42.3052 905.52 42.3597 905.139 42.5777C904.975 42.6322 904.866 42.7411 904.757 42.9046C904.649 43.0681 904.594 43.1226 904.703 43.1771C905.139 43.2316 905.411 43.3951 905.575 43.6131L905.629 43.7221C905.684 43.8311 905.738 43.9945 905.793 44.2125C905.847 44.4305 905.847 44.703 905.902 44.9755C905.956 45.4659 905.956 45.9019 905.902 46.2834C905.847 46.6648 905.847 46.9373 905.793 47.1008C905.738 47.3188 905.738 47.4823 905.629 47.5913C905.575 47.7003 905.52 47.8093 905.52 47.8093C905.52 47.8638 905.466 47.8638 905.466 47.8638C905.357 47.9183 905.302 47.9183 905.193 47.9183C905.084 47.9183 904.975 47.8638 904.866 47.7548C904.703 47.6458 904.594 47.5368 904.431 47.3733C904.267 47.2098 904.104 46.9918 903.94 46.6648C903.777 46.3379 903.559 46.0109 903.341 45.5749L903.177 45.248C903.068 45.03 902.905 44.7575 902.741 44.376C902.578 43.9945 902.414 43.6676 902.251 43.2861C902.196 43.1771 902.087 43.0681 901.978 42.9591H901.924C901.869 42.9046 901.815 42.9046 901.76 42.8501C901.706 42.8501 901.597 42.7956 901.542 42.7956H898.708C898.381 42.7956 898.163 42.9046 898.054 43.0136V43.0681C898 43.1226 898 43.1771 898 43.2316C898 43.2861 898 43.3951 898.054 43.5041C898.49 44.485 898.926 45.4114 899.417 46.3379C899.907 47.2643 900.343 47.9727 900.67 48.5177C901.052 49.0627 901.379 49.6076 901.76 50.0981C902.142 50.5886 902.36 50.9155 902.523 51.0245C902.632 51.188 902.741 51.2425 902.796 51.3515L903.068 51.624C903.232 51.7875 903.504 52.0054 903.777 52.2234C904.104 52.4414 904.431 52.6594 904.866 52.9319C905.248 53.1499 905.738 53.3678 906.229 53.4768C906.774 53.6403 907.264 53.6948 907.755 53.6403H908.954C909.172 53.6403 909.39 53.5313 909.499 53.4223L909.553 53.3678C909.608 53.3133 909.608 53.2589 909.608 53.1499C909.608 53.0409 909.662 52.9864 909.662 52.8774C909.662 52.6049 909.662 52.3324 909.717 52.0599C909.771 51.842 909.826 51.624 909.88 51.515C909.935 51.406 910.044 51.297 910.098 51.188C910.207 51.079 910.262 51.079 910.262 51.0245C910.316 51.0245 910.316 50.97 910.371 50.97C910.534 50.9155 910.752 50.97 910.97 51.1335C911.188 51.297 911.406 51.515 911.624 51.733C911.842 51.951 912.06 52.2234 912.332 52.5504C912.605 52.8229 912.877 53.0954 913.041 53.2044L913.259 53.3133C913.422 53.4223 913.586 53.4768 913.804 53.5313C914.022 53.5858 914.24 53.6403 914.403 53.5858L917.074 53.5313C917.346 53.5313 917.564 53.4768 917.673 53.4223C917.837 53.3133 917.891 53.2589 917.946 53.1499C918 53.0409 918 52.9319 917.946 52.7684C917.946 52.7684 917.946 52.6594 917.891 52.6049Z" fill="#B3B3B3"/>
</g>
</g>
<defs>
<clipPath id="clip0_2_1201">
<rect width="1100" height="87" fill="white"/>
</clipPath>
<clipPath id="clip1_2_1201">
<rect width="12" height="12" fill="white" transform="translate(80 52)"/>
</clipPath>
<clipPath id="clip2_2_1201">
<rect width="20" height="20" fill="white" transform="translate(1000 38)"/>
</clipPath>
<clipPath id="clip3_2_1201">
<rect width="20" height="20" fill="white" transform="translate(966 38)"/>
</clipPath>
<clipPath id="clip4_2_1201">
<rect width="20" height="20" fill="white" transform="translate(932 38)"/>
</clipPath>
<clipPath id="clip5_2_1201">
<rect width="20" height="20" fill="white" transform="translate(898 38)"/>
</clipPath>
</defs>
</svg>
